<mxfile host="app.diagrams.net" modified="2022-09-07T09:55:42.753Z" agent="5.0 (Windows NT 10.0; Win64; x64) AppleWebKit/537.36 (KHTML, like Gecko) Chrome/95.0.4638.54 Safari/537.36" etag="WfT9hi-TbaTsxYoxFp2u" version="20.0.3" type="github">
  <diagram id="mo65GD1Zs_6Lgm2pUz7a" name="Page-1">
    <mxGraphModel dx="1422" dy="794" grid="1" gridSize="10" guides="1" tooltips="1" connect="1" arrows="1" fold="1" page="1" pageScale="1" pageWidth="1169" pageHeight="827" math="0" shadow="0">
      <root>
        <mxCell id="0" />
        <mxCell id="1" parent="0" />
        <mxCell id="mvfuKpd0hDVn48-6f5z2-3" style="edgeStyle=orthogonalEdgeStyle;rounded=0;orthogonalLoop=1;jettySize=auto;html=1;exitX=1;exitY=0.5;exitDx=0;exitDy=0;entryX=0;entryY=0.5;entryDx=0;entryDy=0;" edge="1" parent="1" source="mvfuKpd0hDVn48-6f5z2-1" target="mvfuKpd0hDVn48-6f5z2-2">
          <mxGeometry relative="1" as="geometry" />
        </mxCell>
        <mxCell id="mvfuKpd0hDVn48-6f5z2-1" value="" style="whiteSpace=wrap;html=1;aspect=fixed;" vertex="1" parent="1">
          <mxGeometry x="500" y="300" width="60" height="60" as="geometry" />
        </mxCell>
        <mxCell id="mvfuKpd0hDVn48-6f5z2-2" value="" style="rounded=0;whiteSpace=wrap;html=1;" vertex="1" parent="1">
          <mxGeometry x="710" y="340" width="120" height="60" as="geometry" />
        </mxCell>
      </root>
    </mxGraphModel>
  </diagram>
</mxfile>
